<svg xmlns="http://www.w3.org/2000/svg" height="800" width="1200" id="svg397" version="1.1" viewBox="-45.765 -94.3575 396.63 566.145"><defs id="defs391"><style id="style389"/></defs><g transform="translate(-106.26 -113.5)" id="g395"><path id="path393" d="M194 226.87l-25.6 25.6-25.6-25.6 25.6-25.6zm62.17-62.17L300 208.59l25.6-25.6-69.47-69.49-69.48 69.5 25.6 25.6zm87.77 36.57l-25.6 25.6 25.6 25.6 25.6-25.6zm-87.77 87.78l-43.88-43.89-25.6 25.6 69.48 69.49 69.49-69.49-25.66-25.6zm0-36.58l25.6-25.6-25.6-25.6-25.6 25.6zM106.31 490.89h47.09c22.35 0 37.06-9.05 37.06-27.15v-.28c0-13.3-7.07-19.95-18.53-24.33 7.07-4 13-10.18 13-21.36v-.28a22.7 22.7 0 00-6.79-16.83c-5.65-5.66-14.56-8.77-25.88-8.77h-46zm21.21-59V411H149c9.19 0 14.28 3.67 14.28 10.18v.28c0 7.35-6.08 10.47-15.7 10.47zm0 39.88V450h25.18c11.17 0 16.12 4.1 16.12 10.75v.28c0 7.35-5.8 10.75-15.42 10.75zM212 490.89h21.49V428l47.95 62.93h18.53v-99h-21.5v61l-46.39-61H212zm115.26 0h47.04c22.35 0 37.06-9.05 37.06-27.15v-.28c0-13.3-7.07-19.95-18.53-24.33 7.07-4 13-10.18 13-21.36v-.28a22.7 22.7 0 00-6.79-16.83c-5.65-5.66-14.56-8.77-25.88-8.77h-46zm21.21-59V411h21.5c9.19 0 14.28 3.67 14.28 10.18v.28c0 7.35-6.08 10.47-15.7 10.47zm0 39.88V450h25.13c11.17 0 16.12 4.1 16.12 10.75v.28c0 7.35-5.8 10.75-15.42 10.75z" fill="#f0b90b"/></g></svg>